<svg xmlns="http://www.w3.org/2000/svg" xmlns:xlink="http://www.w3.org/1999/xlink" width="2000" zoomAndPan="magnify" viewBox="0 0 1500 1499.999933" height="2000" preserveAspectRatio="xMidYMid meet" version="1.0"><defs><clipPath id="a36252f6af"><path d="M 150 150 L 278.265625 150 L 278.265625 278.265625 L 150 278.265625 Z M 150 150 " clip-rule="nonzero"/></clipPath><clipPath id="14622945ba"><path d="M 0 0 L 128.265625 0 L 128.265625 128.265625 L 0 128.265625 Z M 0 0 " clip-rule="nonzero"/></clipPath><clipPath id="1a391af47f"><rect x="0" width="129" y="0" height="129"/></clipPath><clipPath id="0c712a990d"><path d="M 283.964844 150 L 412.234375 150 L 412.234375 278.265625 L 283.964844 278.265625 Z M 283.964844 150 " clip-rule="nonzero"/></clipPath><clipPath id="39ab6c87ac"><path d="M 0.964844 0 L 129.234375 0 L 129.234375 128.265625 L 0.964844 128.265625 Z M 0.964844 0 " clip-rule="nonzero"/></clipPath><clipPath id="724af983b6"><rect x="0" width="130" y="0" height="129"/></clipPath><clipPath id="80a738e960"><path d="M 417.933594 150 L 546.199219 150 L 546.199219 278.265625 L 417.933594 278.265625 Z M 417.933594 150 " clip-rule="nonzero"/></clipPath><clipPath id="459c79f477"><path d="M 0.933594 0 L 129.199219 0 L 129.199219 128.265625 L 0.933594 128.265625 Z M 0.933594 0 " clip-rule="nonzero"/></clipPath><clipPath id="2d9ed119f9"><rect x="0" width="130" y="0" height="129"/></clipPath><clipPath id="61af8a764d"><path d="M 551.898438 150 L 680.167969 150 L 680.167969 278.265625 L 551.898438 278.265625 Z M 551.898438 150 " clip-rule="nonzero"/></clipPath><clipPath id="ebbb14c24d"><path d="M 0.898438 0 L 129.167969 0 L 129.167969 128.265625 L 0.898438 128.265625 Z M 0.898438 0 " clip-rule="nonzero"/></clipPath><clipPath id="16222c8194"><rect x="0" width="130" y="0" height="129"/></clipPath><clipPath id="eeed334fdc"><path d="M 685.867188 150 L 814.132812 150 L 814.132812 278.265625 L 685.867188 278.265625 Z M 685.867188 150 " clip-rule="nonzero"/></clipPath><clipPath id="942c15bea5"><path d="M 0.867188 0 L 129.132812 0 L 129.132812 128.265625 L 0.867188 128.265625 Z M 0.867188 0 " clip-rule="nonzero"/></clipPath><clipPath id="58f418b426"><rect x="0" width="130" y="0" height="129"/></clipPath><clipPath id="ee2cb53297"><path d="M 819.832031 150 L 948.101562 150 L 948.101562 278.265625 L 819.832031 278.265625 Z M 819.832031 150 " clip-rule="nonzero"/></clipPath><clipPath id="1f268d1878"><path d="M 0.832031 0 L 129.101562 0 L 129.101562 128.265625 L 0.832031 128.265625 Z M 0.832031 0 " clip-rule="nonzero"/></clipPath><clipPath id="5c8325d7e9"><rect x="0" width="130" y="0" height="129"/></clipPath><clipPath id="3991767dc3"><path d="M 953.800781 150 L 1082.066406 150 L 1082.066406 278.265625 L 953.800781 278.265625 Z M 953.800781 150 " clip-rule="nonzero"/></clipPath><clipPath id="de57b8b9af"><path d="M 0.800781 0 L 129.066406 0 L 129.066406 128.265625 L 0.800781 128.265625 Z M 0.800781 0 " clip-rule="nonzero"/></clipPath><clipPath id="12ea1f8ef5"><rect x="0" width="130" y="0" height="129"/></clipPath><clipPath id="edfe5c68a3"><path d="M 1087.765625 150 L 1216.03125 150 L 1216.03125 278.265625 L 1087.765625 278.265625 Z M 1087.765625 150 " clip-rule="nonzero"/></clipPath><clipPath id="bc7f98f974"><path d="M 0.765625 0 L 129.03125 0 L 129.03125 128.265625 L 0.765625 128.265625 Z M 0.765625 0 " clip-rule="nonzero"/></clipPath><clipPath id="c9678f98fd"><rect x="0" width="130" y="0" height="129"/></clipPath><clipPath id="aa1e634dfe"><path d="M 1221.734375 150 L 1350 150 L 1350 278.265625 L 1221.734375 278.265625 Z M 1221.734375 150 " clip-rule="nonzero"/></clipPath><clipPath id="72a0d81dbe"><path d="M 0.734375 0 L 129 0 L 129 128.265625 L 0.734375 128.265625 Z M 0.734375 0 " clip-rule="nonzero"/></clipPath><clipPath id="3d5f90e222"><rect x="0" width="129" y="0" height="129"/></clipPath><clipPath id="2ae1fc2105"><path d="M 150 283.949219 L 278.265625 283.949219 L 278.265625 412.214844 L 150 412.214844 Z M 150 283.949219 " clip-rule="nonzero"/></clipPath><clipPath id="d0c750c528"><path d="M 0 0.949219 L 128.265625 0.949219 L 128.265625 129.214844 L 0 129.214844 Z M 0 0.949219 " clip-rule="nonzero"/></clipPath><clipPath id="90084fa1c2"><rect x="0" width="129" y="0" height="130"/></clipPath><clipPath id="a22c270aae"><path d="M 283.964844 283.949219 L 412.234375 283.949219 L 412.234375 412.214844 L 283.964844 412.214844 Z M 283.964844 283.949219 " clip-rule="nonzero"/></clipPath><clipPath id="591d434477"><path d="M 0.964844 0.949219 L 129.234375 0.949219 L 129.234375 129.214844 L 0.964844 129.214844 Z M 0.964844 0.949219 " clip-rule="nonzero"/></clipPath><clipPath id="c058bcee97"><rect x="0" width="130" y="0" height="130"/></clipPath><clipPath id="80782ba91e"><path d="M 417.933594 283.949219 L 546.199219 283.949219 L 546.199219 412.214844 L 417.933594 412.214844 Z M 417.933594 283.949219 " clip-rule="nonzero"/></clipPath><clipPath id="96471c7256"><path d="M 0.933594 0.949219 L 129.199219 0.949219 L 129.199219 129.214844 L 0.933594 129.214844 Z M 0.933594 0.949219 " clip-rule="nonzero"/></clipPath><clipPath id="8d34a48ec9"><rect x="0" width="130" y="0" height="130"/></clipPath><clipPath id="d2b5b75b2b"><path d="M 551.898438 283.949219 L 680.167969 283.949219 L 680.167969 412.214844 L 551.898438 412.214844 Z M 551.898438 283.949219 " clip-rule="nonzero"/></clipPath><clipPath id="cd4f49d180"><path d="M 0.898438 0.949219 L 129.167969 0.949219 L 129.167969 129.214844 L 0.898438 129.214844 Z M 0.898438 0.949219 " clip-rule="nonzero"/></clipPath><clipPath id="20bbcaf74a"><rect x="0" width="130" y="0" height="130"/></clipPath><clipPath id="b662b0a039"><path d="M 685.867188 283.949219 L 814.132812 283.949219 L 814.132812 412.214844 L 685.867188 412.214844 Z M 685.867188 283.949219 " clip-rule="nonzero"/></clipPath><clipPath id="843ae48b61"><path d="M 0.867188 0.949219 L 129.132812 0.949219 L 129.132812 129.214844 L 0.867188 129.214844 Z M 0.867188 0.949219 " clip-rule="nonzero"/></clipPath><clipPath id="e36f9264c8"><rect x="0" width="130" y="0" height="130"/></clipPath><clipPath id="19af1128d0"><path d="M 819.832031 283.949219 L 948.101562 283.949219 L 948.101562 412.214844 L 819.832031 412.214844 Z M 819.832031 283.949219 " clip-rule="nonzero"/></clipPath><clipPath id="064fcbd8ba"><path d="M 0.832031 0.949219 L 129.101562 0.949219 L 129.101562 129.214844 L 0.832031 129.214844 Z M 0.832031 0.949219 " clip-rule="nonzero"/></clipPath><clipPath id="d7a36c13c0"><rect x="0" width="130" y="0" height="130"/></clipPath><clipPath id="f1e86a03c3"><path d="M 953.800781 283.949219 L 1082.066406 283.949219 L 1082.066406 412.214844 L 953.800781 412.214844 Z M 953.800781 283.949219 " clip-rule="nonzero"/></clipPath><clipPath id="eda7692ce0"><path d="M 0.800781 0.949219 L 129.066406 0.949219 L 129.066406 129.214844 L 0.800781 129.214844 Z M 0.800781 0.949219 " clip-rule="nonzero"/></clipPath><clipPath id="c8c5704b7b"><rect x="0" width="130" y="0" height="130"/></clipPath><clipPath id="0bb0285f5a"><path d="M 1087.765625 283.949219 L 1216.03125 283.949219 L 1216.03125 412.214844 L 1087.765625 412.214844 Z M 1087.765625 283.949219 " clip-rule="nonzero"/></clipPath><clipPath id="6224e82f75"><path d="M 0.765625 0.949219 L 129.03125 0.949219 L 129.03125 129.214844 L 0.765625 129.214844 Z M 0.765625 0.949219 " clip-rule="nonzero"/></clipPath><clipPath id="635e80a259"><rect x="0" width="130" y="0" height="130"/></clipPath><clipPath id="8904abfddb"><path d="M 1221.734375 283.949219 L 1350 283.949219 L 1350 412.214844 L 1221.734375 412.214844 Z M 1221.734375 283.949219 " clip-rule="nonzero"/></clipPath><clipPath id="e8228284b8"><path d="M 0.734375 0.949219 L 129 0.949219 L 129 129.214844 L 0.734375 129.214844 Z M 0.734375 0.949219 " clip-rule="nonzero"/></clipPath><clipPath id="78b16afaca"><rect x="0" width="129" y="0" height="130"/></clipPath><clipPath id="40b8d45aaa"><path d="M 150 418.214844 L 278.265625 418.214844 L 278.265625 546.480469 L 150 546.480469 Z M 150 418.214844 " clip-rule="nonzero"/></clipPath><clipPath id="1065d4aa48"><path d="M 0 0.214844 L 128.265625 0.214844 L 128.265625 128.480469 L 0 128.480469 Z M 0 0.214844 " clip-rule="nonzero"/></clipPath><clipPath id="8faa5a5a35"><rect x="0" width="129" y="0" height="129"/></clipPath><clipPath id="d5cabcf854"><path d="M 283.964844 418.214844 L 412.234375 418.214844 L 412.234375 546.480469 L 283.964844 546.480469 Z M 283.964844 418.214844 " clip-rule="nonzero"/></clipPath><clipPath id="eef5cd114d"><path d="M 0.964844 0.214844 L 129.234375 0.214844 L 129.234375 128.480469 L 0.964844 128.480469 Z M 0.964844 0.214844 " clip-rule="nonzero"/></clipPath><clipPath id="62631edcc5"><rect x="0" width="130" y="0" height="129"/></clipPath><clipPath id="abc58abdd5"><path d="M 417.933594 418.214844 L 546.199219 418.214844 L 546.199219 546.480469 L 417.933594 546.480469 Z M 417.933594 418.214844 " clip-rule="nonzero"/></clipPath><clipPath id="b25023bc84"><path d="M 0.933594 0.214844 L 129.199219 0.214844 L 129.199219 128.480469 L 0.933594 128.480469 Z M 0.933594 0.214844 " clip-rule="nonzero"/></clipPath><clipPath id="b8413b8cbc"><rect x="0" width="130" y="0" height="129"/></clipPath><clipPath id="90d0ebbf26"><path d="M 685.867188 418.214844 L 814.132812 418.214844 L 814.132812 546.480469 L 685.867188 546.480469 Z M 685.867188 418.214844 " clip-rule="nonzero"/></clipPath><clipPath id="a718e450b1"><path d="M 0.867188 0.214844 L 129.132812 0.214844 L 129.132812 128.480469 L 0.867188 128.480469 Z M 0.867188 0.214844 " clip-rule="nonzero"/></clipPath><clipPath id="d7427a9d64"><rect x="0" width="130" y="0" height="129"/></clipPath><clipPath id="3a59f9c263"><path d="M 953.800781 418.214844 L 1082.066406 418.214844 L 1082.066406 546.480469 L 953.800781 546.480469 Z M 953.800781 418.214844 " clip-rule="nonzero"/></clipPath><clipPath id="3d8b2eaf4c"><path d="M 0.800781 0.214844 L 129.066406 0.214844 L 129.066406 128.480469 L 0.800781 128.480469 Z M 0.800781 0.214844 " clip-rule="nonzero"/></clipPath><clipPath id="b4d03bc42c"><rect x="0" width="130" y="0" height="129"/></clipPath><clipPath id="db868c264f"><path d="M 1087.765625 418.214844 L 1216.03125 418.214844 L 1216.03125 546.480469 L 1087.765625 546.480469 Z M 1087.765625 418.214844 " clip-rule="nonzero"/></clipPath><clipPath id="9181b6c28a"><path d="M 0.765625 0.214844 L 129.03125 0.214844 L 129.03125 128.480469 L 0.765625 128.480469 Z M 0.765625 0.214844 " clip-rule="nonzero"/></clipPath><clipPath id="2187e73dca"><rect x="0" width="130" y="0" height="129"/></clipPath><clipPath id="cca593ad4b"><path d="M 1221.734375 418.214844 L 1350 418.214844 L 1350 546.480469 L 1221.734375 546.480469 Z M 1221.734375 418.214844 " clip-rule="nonzero"/></clipPath><clipPath id="544a0541e2"><path d="M 0.734375 0.214844 L 129 0.214844 L 129 128.480469 L 0.734375 128.480469 Z M 0.734375 0.214844 " clip-rule="nonzero"/></clipPath><clipPath id="2c3e5315b7"><rect x="0" width="129" y="0" height="129"/></clipPath><clipPath id="7bc055c44b"><path d="M 551.898438 1356.277344 L 680.167969 1356.277344 L 680.167969 1484.542969 L 551.898438 1484.542969 Z M 551.898438 1356.277344 " clip-rule="nonzero"/></clipPath><clipPath id="9693851f7c"><path d="M 0.898438 0.277344 L 129.167969 0.277344 L 129.167969 128.542969 L 0.898438 128.542969 Z M 0.898438 0.277344 " clip-rule="nonzero"/></clipPath><clipPath id="4c72d93a81"><rect x="0" width="130" y="0" height="129"/></clipPath><clipPath id="5c6f82f785"><path d="M 551.898438 1088.34375 L 680.167969 1088.34375 L 680.167969 1216.609375 L 551.898438 1216.609375 Z M 551.898438 1088.34375 " clip-rule="nonzero"/></clipPath><clipPath id="66f8ee1dc4"><path d="M 0.898438 0.34375 L 129.167969 0.34375 L 129.167969 128.609375 L 0.898438 128.609375 Z M 0.898438 0.34375 " clip-rule="nonzero"/></clipPath><clipPath id="42587ef1f7"><rect x="0" width="130" y="0" height="129"/></clipPath><clipPath id="52db95ce0f"><path d="M 551.898438 820.410156 L 680.167969 820.410156 L 680.167969 948.675781 L 551.898438 948.675781 Z M 551.898438 820.410156 " clip-rule="nonzero"/></clipPath><clipPath id="1f3442e1d2"><path d="M 0.898438 0.410156 L 129.167969 0.410156 L 129.167969 128.675781 L 0.898438 128.675781 Z M 0.898438 0.410156 " clip-rule="nonzero"/></clipPath><clipPath id="2bea3e1601"><rect x="0" width="130" y="0" height="129"/></clipPath><clipPath id="3ba2863f95"><path d="M 551.898438 552.476562 L 680.167969 552.476562 L 680.167969 680.742188 L 551.898438 680.742188 Z M 551.898438 552.476562 " clip-rule="nonzero"/></clipPath><clipPath id="567c0a3eeb"><path d="M 0.898438 0.476562 L 129.167969 0.476562 L 129.167969 128.742188 L 0.898438 128.742188 Z M 0.898438 0.476562 " clip-rule="nonzero"/></clipPath><clipPath id="ed58b1de36"><rect x="0" width="130" y="0" height="129"/></clipPath><clipPath id="4b1cd85a09"><path d="M 685.851562 1222.3125 L 814.117188 1222.3125 L 814.117188 1350.578125 L 685.851562 1350.578125 Z M 685.851562 1222.3125 " clip-rule="nonzero"/></clipPath><clipPath id="b87e4e45cb"><path d="M 0.851562 0.3125 L 129.117188 0.3125 L 129.117188 128.578125 L 0.851562 128.578125 Z M 0.851562 0.3125 " clip-rule="nonzero"/></clipPath><clipPath id="4e4c246aed"><rect x="0" width="130" y="0" height="129"/></clipPath><clipPath id="d3a748be2f"><path d="M 685.851562 954.378906 L 814.117188 954.378906 L 814.117188 1082.644531 L 685.851562 1082.644531 Z M 685.851562 954.378906 " clip-rule="nonzero"/></clipPath><clipPath id="77a35ef628"><path d="M 0.851562 0.378906 L 129.117188 0.378906 L 129.117188 128.644531 L 0.851562 128.644531 Z M 0.851562 0.378906 " clip-rule="nonzero"/></clipPath><clipPath id="1e31cde619"><rect x="0" width="130" y="0" height="129"/></clipPath><clipPath id="87803ba594"><path d="M 685.851562 686.445312 L 814.117188 686.445312 L 814.117188 814.710938 L 685.851562 814.710938 Z M 685.851562 686.445312 " clip-rule="nonzero"/></clipPath><clipPath id="0ec23ee68b"><path d="M 0.851562 0.445312 L 129.117188 0.445312 L 129.117188 128.710938 L 0.851562 128.710938 Z M 0.851562 0.445312 " clip-rule="nonzero"/></clipPath><clipPath id="acbcb8cdff"><rect x="0" width="130" y="0" height="129"/></clipPath><clipPath id="6f63976ce9"><path d="M 820.117188 1356.277344 L 948.382812 1356.277344 L 948.382812 1484.542969 L 820.117188 1484.542969 Z M 820.117188 1356.277344 " clip-rule="nonzero"/></clipPath><clipPath id="c055f9a503"><path d="M 0.117188 0.277344 L 128.382812 0.277344 L 128.382812 128.542969 L 0.117188 128.542969 Z M 0.117188 0.277344 " clip-rule="nonzero"/></clipPath><clipPath id="149f6ea8a1"><rect x="0" width="129" y="0" height="129"/></clipPath><clipPath id="52697afe07"><path d="M 820.117188 1088.34375 L 948.382812 1088.34375 L 948.382812 1216.609375 L 820.117188 1216.609375 Z M 820.117188 1088.34375 " clip-rule="nonzero"/></clipPath><clipPath id="1f8bff41c9"><path d="M 0.117188 0.34375 L 128.382812 0.34375 L 128.382812 128.609375 L 0.117188 128.609375 Z M 0.117188 0.34375 " clip-rule="nonzero"/></clipPath><clipPath id="84c290cebb"><rect x="0" width="129" y="0" height="129"/></clipPath><clipPath id="b1e130d171"><path d="M 820.117188 820.410156 L 948.382812 820.410156 L 948.382812 948.675781 L 820.117188 948.675781 Z M 820.117188 820.410156 " clip-rule="nonzero"/></clipPath><clipPath id="cc105906ed"><path d="M 0.117188 0.410156 L 128.382812 0.410156 L 128.382812 128.675781 L 0.117188 128.675781 Z M 0.117188 0.410156 " clip-rule="nonzero"/></clipPath><clipPath id="0be5593126"><rect x="0" width="129" y="0" height="129"/></clipPath><clipPath id="6bb65fa634"><path d="M 820.117188 552.476562 L 948.382812 552.476562 L 948.382812 680.742188 L 820.117188 680.742188 Z M 820.117188 552.476562 " clip-rule="nonzero"/></clipPath><clipPath id="95b6236a38"><path d="M 0.117188 0.476562 L 128.382812 0.476562 L 128.382812 128.742188 L 0.117188 128.742188 Z M 0.117188 0.476562 " clip-rule="nonzero"/></clipPath><clipPath id="645dda22a6"><rect x="0" width="129" y="0" height="129"/></clipPath></defs><g clip-path="url(#a36252f6af)"><g transform="matrix(1, 0, 0, 1, 150, 150)"><g clip-path="url(#1a391af47f)"><g clip-path="url(#14622945ba)"><path fill="#fffdfd" d="M 0 0 L 128.265625 0 L 128.265625 128.265625 L 0 128.265625 Z M 0 0 " fill-opacity="1" fill-rule="nonzero"/></g></g></g></g><g clip-path="url(#0c712a990d)"><g transform="matrix(1, 0, 0, 1, 283, 150)"><g clip-path="url(#724af983b6)"><g clip-path="url(#39ab6c87ac)"><path fill="#fffdfd" d="M 0.964844 0 L 129.234375 0 L 129.234375 128.265625 L 0.964844 128.265625 Z M 0.964844 0 " fill-opacity="1" fill-rule="nonzero"/></g></g></g></g><g clip-path="url(#80a738e960)"><g transform="matrix(1, 0, 0, 1, 417, 150)"><g clip-path="url(#2d9ed119f9)"><g clip-path="url(#459c79f477)"><path fill="#fffdfd" d="M 0.933594 0 L 129.199219 0 L 129.199219 128.265625 L 0.933594 128.265625 Z M 0.933594 0 " fill-opacity="1" fill-rule="nonzero"/></g></g></g></g><g clip-path="url(#61af8a764d)"><g transform="matrix(1, 0, 0, 1, 551, 150)"><g clip-path="url(#16222c8194)"><g clip-path="url(#ebbb14c24d)"><path fill="#fffdfd" d="M 0.898438 0 L 129.167969 0 L 129.167969 128.265625 L 0.898438 128.265625 Z M 0.898438 0 " fill-opacity="1" fill-rule="nonzero"/></g></g></g></g><g clip-path="url(#eeed334fdc)"><g transform="matrix(1, 0, 0, 1, 685, 150)"><g clip-path="url(#58f418b426)"><g clip-path="url(#942c15bea5)"><path fill="#fffdfd" d="M 0.867188 0 L 129.132812 0 L 129.132812 128.265625 L 0.867188 128.265625 Z M 0.867188 0 " fill-opacity="1" fill-rule="nonzero"/></g></g></g></g><g clip-path="url(#ee2cb53297)"><g transform="matrix(1, 0, 0, 1, 819, 150)"><g clip-path="url(#5c8325d7e9)"><g clip-path="url(#1f268d1878)"><path fill="#fffdfd" d="M 0.832031 0 L 129.101562 0 L 129.101562 128.265625 L 0.832031 128.265625 Z M 0.832031 0 " fill-opacity="1" fill-rule="nonzero"/></g></g></g></g><g clip-path="url(#3991767dc3)"><g transform="matrix(1, 0, 0, 1, 953, 150)"><g clip-path="url(#12ea1f8ef5)"><g clip-path="url(#de57b8b9af)"><path fill="#fffdfd" d="M 0.800781 0 L 129.066406 0 L 129.066406 128.265625 L 0.800781 128.265625 Z M 0.800781 0 " fill-opacity="1" fill-rule="nonzero"/></g></g></g></g><g clip-path="url(#edfe5c68a3)"><g transform="matrix(1, 0, 0, 1, 1087, 150)"><g clip-path="url(#c9678f98fd)"><g clip-path="url(#bc7f98f974)"><path fill="#fffdfd" d="M 0.765625 0 L 129.03125 0 L 129.03125 128.265625 L 0.765625 128.265625 Z M 0.765625 0 " fill-opacity="1" fill-rule="nonzero"/></g></g></g></g><g clip-path="url(#aa1e634dfe)"><g transform="matrix(1, 0, 0, 1, 1221, 150)"><g clip-path="url(#3d5f90e222)"><g clip-path="url(#72a0d81dbe)"><path fill="#fffdfd" d="M 0.734375 0 L 129 0 L 129 128.265625 L 0.734375 128.265625 Z M 0.734375 0 " fill-opacity="1" fill-rule="nonzero"/></g></g></g></g><g clip-path="url(#2ae1fc2105)"><g transform="matrix(1, 0, 0, 1, 150, 283)"><g clip-path="url(#90084fa1c2)"><g clip-path="url(#d0c750c528)"><path fill="#fffdfd" d="M 0 0.949219 L 128.265625 0.949219 L 128.265625 129.214844 L 0 129.214844 Z M 0 0.949219 " fill-opacity="1" fill-rule="nonzero"/></g></g></g></g><g clip-path="url(#a22c270aae)"><g transform="matrix(1, 0, 0, 1, 283, 283)"><g clip-path="url(#c058bcee97)"><g clip-path="url(#591d434477)"><path fill="#fffdfd" d="M 0.964844 0.949219 L 129.234375 0.949219 L 129.234375 129.214844 L 0.964844 129.214844 Z M 0.964844 0.949219 " fill-opacity="1" fill-rule="nonzero"/></g></g></g></g><g clip-path="url(#80782ba91e)"><g transform="matrix(1, 0, 0, 1, 417, 283)"><g clip-path="url(#8d34a48ec9)"><g clip-path="url(#96471c7256)"><path fill="#fffdfd" d="M 0.933594 0.949219 L 129.199219 0.949219 L 129.199219 129.214844 L 0.933594 129.214844 Z M 0.933594 0.949219 " fill-opacity="1" fill-rule="nonzero"/></g></g></g></g><g clip-path="url(#d2b5b75b2b)"><g transform="matrix(1, 0, 0, 1, 551, 283)"><g clip-path="url(#20bbcaf74a)"><g clip-path="url(#cd4f49d180)"><path fill="#fffdfd" d="M 0.898438 0.949219 L 129.167969 0.949219 L 129.167969 129.214844 L 0.898438 129.214844 Z M 0.898438 0.949219 " fill-opacity="1" fill-rule="nonzero"/></g></g></g></g><g clip-path="url(#b662b0a039)"><g transform="matrix(1, 0, 0, 1, 685, 283)"><g clip-path="url(#e36f9264c8)"><g clip-path="url(#843ae48b61)"><path fill="#fffdfd" d="M 0.867188 0.949219 L 129.132812 0.949219 L 129.132812 129.214844 L 0.867188 129.214844 Z M 0.867188 0.949219 " fill-opacity="1" fill-rule="nonzero"/></g></g></g></g><g clip-path="url(#19af1128d0)"><g transform="matrix(1, 0, 0, 1, 819, 283)"><g clip-path="url(#d7a36c13c0)"><g clip-path="url(#064fcbd8ba)"><path fill="#fffdfd" d="M 0.832031 0.949219 L 129.101562 0.949219 L 129.101562 129.214844 L 0.832031 129.214844 Z M 0.832031 0.949219 " fill-opacity="1" fill-rule="nonzero"/></g></g></g></g><g clip-path="url(#f1e86a03c3)"><g transform="matrix(1, 0, 0, 1, 953, 283)"><g clip-path="url(#c8c5704b7b)"><g clip-path="url(#eda7692ce0)"><path fill="#fffdfd" d="M 0.800781 0.949219 L 129.066406 0.949219 L 129.066406 129.214844 L 0.800781 129.214844 Z M 0.800781 0.949219 " fill-opacity="1" fill-rule="nonzero"/></g></g></g></g><g clip-path="url(#0bb0285f5a)"><g transform="matrix(1, 0, 0, 1, 1087, 283)"><g clip-path="url(#635e80a259)"><g clip-path="url(#6224e82f75)"><path fill="#fffdfd" d="M 0.765625 0.949219 L 129.03125 0.949219 L 129.03125 129.214844 L 0.765625 129.214844 Z M 0.765625 0.949219 " fill-opacity="1" fill-rule="nonzero"/></g></g></g></g><g clip-path="url(#8904abfddb)"><g transform="matrix(1, 0, 0, 1, 1221, 283)"><g clip-path="url(#78b16afaca)"><g clip-path="url(#e8228284b8)"><path fill="#fffdfd" d="M 0.734375 0.949219 L 129 0.949219 L 129 129.214844 L 0.734375 129.214844 Z M 0.734375 0.949219 " fill-opacity="1" fill-rule="nonzero"/></g></g></g></g><g clip-path="url(#40b8d45aaa)"><g transform="matrix(1, 0, 0, 1, 150, 418)"><g clip-path="url(#8faa5a5a35)"><g clip-path="url(#1065d4aa48)"><path fill="#fffdfd" d="M 0 0.214844 L 128.265625 0.214844 L 128.265625 128.480469 L 0 128.480469 Z M 0 0.214844 " fill-opacity="1" fill-rule="nonzero"/></g></g></g></g><g clip-path="url(#d5cabcf854)"><g transform="matrix(1, 0, 0, 1, 283, 418)"><g clip-path="url(#62631edcc5)"><g clip-path="url(#eef5cd114d)"><path fill="#fffdfd" d="M 0.964844 0.214844 L 129.234375 0.214844 L 129.234375 128.480469 L 0.964844 128.480469 Z M 0.964844 0.214844 " fill-opacity="1" fill-rule="nonzero"/></g></g></g></g><g clip-path="url(#abc58abdd5)"><g transform="matrix(1, 0, 0, 1, 417, 418)"><g clip-path="url(#b8413b8cbc)"><g clip-path="url(#b25023bc84)"><path fill="#fffdfd" d="M 0.933594 0.214844 L 129.199219 0.214844 L 129.199219 128.480469 L 0.933594 128.480469 Z M 0.933594 0.214844 " fill-opacity="1" fill-rule="nonzero"/></g></g></g></g><g clip-path="url(#90d0ebbf26)"><g transform="matrix(1, 0, 0, 1, 685, 418)"><g clip-path="url(#d7427a9d64)"><g clip-path="url(#a718e450b1)"><path fill="#fffdfd" d="M 0.867188 0.214844 L 129.132812 0.214844 L 129.132812 128.480469 L 0.867188 128.480469 Z M 0.867188 0.214844 " fill-opacity="1" fill-rule="nonzero"/></g></g></g></g><g clip-path="url(#3a59f9c263)"><g transform="matrix(1, 0, 0, 1, 953, 418)"><g clip-path="url(#b4d03bc42c)"><g clip-path="url(#3d8b2eaf4c)"><path fill="#fffdfd" d="M 0.800781 0.214844 L 129.066406 0.214844 L 129.066406 128.480469 L 0.800781 128.480469 Z M 0.800781 0.214844 " fill-opacity="1" fill-rule="nonzero"/></g></g></g></g><g clip-path="url(#db868c264f)"><g transform="matrix(1, 0, 0, 1, 1087, 418)"><g clip-path="url(#2187e73dca)"><g clip-path="url(#9181b6c28a)"><path fill="#fffdfd" d="M 0.765625 0.214844 L 129.03125 0.214844 L 129.03125 128.480469 L 0.765625 128.480469 Z M 0.765625 0.214844 " fill-opacity="1" fill-rule="nonzero"/></g></g></g></g><g clip-path="url(#cca593ad4b)"><g transform="matrix(1, 0, 0, 1, 1221, 418)"><g clip-path="url(#2c3e5315b7)"><g clip-path="url(#544a0541e2)"><path fill="#fffdfd" d="M 0.734375 0.214844 L 129 0.214844 L 129 128.480469 L 0.734375 128.480469 Z M 0.734375 0.214844 " fill-opacity="1" fill-rule="nonzero"/></g></g></g></g><g clip-path="url(#7bc055c44b)"><g transform="matrix(1, 0, 0, 1, 551, 1356)"><g clip-path="url(#4c72d93a81)"><g clip-path="url(#9693851f7c)"><path fill="#fffdfd" d="M 0.898438 128.542969 L 0.898438 0.277344 L 129.167969 0.277344 L 129.167969 128.542969 Z M 0.898438 128.542969 " fill-opacity="1" fill-rule="nonzero"/></g></g></g></g><g clip-path="url(#5c6f82f785)"><g transform="matrix(1, 0, 0, 1, 551, 1088)"><g clip-path="url(#42587ef1f7)"><g clip-path="url(#66f8ee1dc4)"><path fill="#fffdfd" d="M 0.898438 128.609375 L 0.898438 0.34375 L 129.167969 0.34375 L 129.167969 128.609375 Z M 0.898438 128.609375 " fill-opacity="1" fill-rule="nonzero"/></g></g></g></g><g clip-path="url(#52db95ce0f)"><g transform="matrix(1, 0, 0, 1, 551, 820)"><g clip-path="url(#2bea3e1601)"><g clip-path="url(#1f3442e1d2)"><path fill="#fffdfd" d="M 0.898438 128.675781 L 0.898438 0.410156 L 129.167969 0.410156 L 129.167969 128.675781 Z M 0.898438 128.675781 " fill-opacity="1" fill-rule="nonzero"/></g></g></g></g><g clip-path="url(#3ba2863f95)"><g transform="matrix(1, 0, 0, 1, 551, 552)"><g clip-path="url(#ed58b1de36)"><g clip-path="url(#567c0a3eeb)"><path fill="#fffdfd" d="M 0.898438 128.742188 L 0.898438 0.476562 L 129.167969 0.476562 L 129.167969 128.742188 Z M 0.898438 128.742188 " fill-opacity="1" fill-rule="nonzero"/></g></g></g></g><g clip-path="url(#4b1cd85a09)"><g transform="matrix(1, 0, 0, 1, 685, 1222)"><g clip-path="url(#4e4c246aed)"><g clip-path="url(#b87e4e45cb)"><path fill="#fffdfd" d="M 0.851562 128.578125 L 0.851562 0.3125 L 129.117188 0.3125 L 129.117188 128.578125 Z M 0.851562 128.578125 " fill-opacity="1" fill-rule="nonzero"/></g></g></g></g><g clip-path="url(#d3a748be2f)"><g transform="matrix(1, 0, 0, 1, 685, 954)"><g clip-path="url(#1e31cde619)"><g clip-path="url(#77a35ef628)"><path fill="#fffdfd" d="M 0.851562 128.644531 L 0.851562 0.378906 L 129.117188 0.378906 L 129.117188 128.644531 Z M 0.851562 128.644531 " fill-opacity="1" fill-rule="nonzero"/></g></g></g></g><g clip-path="url(#87803ba594)"><g transform="matrix(1, 0, 0, 1, 685, 686)"><g clip-path="url(#acbcb8cdff)"><g clip-path="url(#0ec23ee68b)"><path fill="#fffdfd" d="M 0.851562 128.710938 L 0.851562 0.445312 L 129.117188 0.445312 L 129.117188 128.710938 Z M 0.851562 128.710938 " fill-opacity="1" fill-rule="nonzero"/></g></g></g></g><g clip-path="url(#6f63976ce9)"><g transform="matrix(1, 0, 0, 1, 820, 1356)"><g clip-path="url(#149f6ea8a1)"><g clip-path="url(#c055f9a503)"><path fill="#fffdfd" d="M 0.117188 128.542969 L 0.117188 0.277344 L 128.382812 0.277344 L 128.382812 128.542969 Z M 0.117188 128.542969 " fill-opacity="1" fill-rule="nonzero"/></g></g></g></g><g clip-path="url(#52697afe07)"><g transform="matrix(1, 0, 0, 1, 820, 1088)"><g clip-path="url(#84c290cebb)"><g clip-path="url(#1f8bff41c9)"><path fill="#fffdfd" d="M 0.117188 128.609375 L 0.117188 0.34375 L 128.382812 0.34375 L 128.382812 128.609375 Z M 0.117188 128.609375 " fill-opacity="1" fill-rule="nonzero"/></g></g></g></g><g clip-path="url(#b1e130d171)"><g transform="matrix(1, 0, 0, 1, 820, 820)"><g clip-path="url(#0be5593126)"><g clip-path="url(#cc105906ed)"><path fill="#fffdfd" d="M 0.117188 128.675781 L 0.117188 0.410156 L 128.382812 0.410156 L 128.382812 128.675781 Z M 0.117188 128.675781 " fill-opacity="1" fill-rule="nonzero"/></g></g></g></g><g clip-path="url(#6bb65fa634)"><g transform="matrix(1, 0, 0, 1, 820, 552)"><g clip-path="url(#645dda22a6)"><g clip-path="url(#95b6236a38)"><path fill="#fffdfd" d="M 0.117188 128.742188 L 0.117188 0.476562 L 128.382812 0.476562 L 128.382812 128.742188 Z M 0.117188 128.742188 " fill-opacity="1" fill-rule="nonzero"/></g></g></g></g></svg>