<svg xmlns="http://www.w3.org/2000/svg" xmlns:xlink="http://www.w3.org/1999/xlink" width="2000" zoomAndPan="magnify" viewBox="0 0 1500 1499.999933" height="2000" preserveAspectRatio="xMidYMid meet" version="1.0"><defs><clipPath id="34d22445c1"><path d="M 47.988281 41.140625 L 741.722656 41.140625 L 741.722656 274.203125 L 47.988281 274.203125 Z M 47.988281 41.140625 " clip-rule="nonzero"/></clipPath><clipPath id="36499a8496"><path d="M 55.488281 41.140625 L 734.085938 41.140625 C 738.226562 41.140625 741.585938 44.496094 741.585938 48.640625 L 741.585938 266.703125 C 741.585938 270.847656 738.226562 274.203125 734.085938 274.203125 L 55.488281 274.203125 C 51.347656 274.203125 47.988281 270.847656 47.988281 266.703125 L 47.988281 48.640625 C 47.988281 44.496094 51.347656 41.140625 55.488281 41.140625 Z M 55.488281 41.140625 " clip-rule="nonzero"/></clipPath><clipPath id="8b80286dfa"><path d="M 0.988281 0.140625 L 694.601562 0.140625 L 694.601562 233.203125 L 0.988281 233.203125 Z M 0.988281 0.140625 " clip-rule="nonzero"/></clipPath><clipPath id="6380c1a4d3"><path d="M 8.488281 0.140625 L 687.085938 0.140625 C 691.226562 0.140625 694.585938 3.496094 694.585938 7.640625 L 694.585938 225.703125 C 694.585938 229.847656 691.226562 233.203125 687.085938 233.203125 L 8.488281 233.203125 C 4.347656 233.203125 0.988281 229.847656 0.988281 225.703125 L 0.988281 7.640625 C 0.988281 3.496094 4.347656 0.140625 8.488281 0.140625 Z M 8.488281 0.140625 " clip-rule="nonzero"/></clipPath><clipPath id="194bb125d7"><rect x="0" width="695" y="0" height="234"/></clipPath><clipPath id="6b56b20b55"><path d="M 758.414062 41.234375 L 1452.148438 41.234375 L 1452.148438 274.296875 L 758.414062 274.296875 Z M 758.414062 41.234375 " clip-rule="nonzero"/></clipPath><clipPath id="cdd1b09b27"><path d="M 765.914062 41.234375 L 1444.511719 41.234375 C 1448.652344 41.234375 1452.011719 44.589844 1452.011719 48.734375 L 1452.011719 266.796875 C 1452.011719 270.941406 1448.652344 274.296875 1444.511719 274.296875 L 765.914062 274.296875 C 761.773438 274.296875 758.414062 270.941406 758.414062 266.796875 L 758.414062 48.734375 C 758.414062 44.589844 761.773438 41.234375 765.914062 41.234375 Z M 765.914062 41.234375 " clip-rule="nonzero"/></clipPath><clipPath id="d45908d0ff"><path d="M 0.414062 0.234375 L 694.148438 0.234375 L 694.148438 233.296875 L 0.414062 233.296875 Z M 0.414062 0.234375 " clip-rule="nonzero"/></clipPath><clipPath id="8d21ccf76a"><path d="M 7.914062 0.234375 L 686.511719 0.234375 C 690.652344 0.234375 694.011719 3.589844 694.011719 7.734375 L 694.011719 225.796875 C 694.011719 229.941406 690.652344 233.296875 686.511719 233.296875 L 7.914062 233.296875 C 3.773438 233.296875 0.414062 229.941406 0.414062 225.796875 L 0.414062 7.734375 C 0.414062 3.589844 3.773438 0.234375 7.914062 0.234375 Z M 7.914062 0.234375 " clip-rule="nonzero"/></clipPath><clipPath id="5f505e3c03"><rect x="0" width="695" y="0" height="234"/></clipPath><clipPath id="a5c897d477"><path d="M 508.519531 289 L 741.585938 289 L 741.585938 1068.300781 L 508.519531 1068.300781 Z M 508.519531 289 " clip-rule="nonzero"/></clipPath><clipPath id="3ca63dbab7"><path d="M 508.519531 1060.800781 L 508.519531 296.921875 C 508.519531 292.78125 511.878906 289.421875 516.019531 289.421875 L 734.085938 289.421875 C 738.226562 289.421875 741.585938 292.78125 741.585938 296.921875 L 741.585938 1060.800781 C 741.585938 1064.941406 738.226562 1068.300781 734.085938 1068.300781 L 516.019531 1068.300781 C 511.878906 1068.300781 508.519531 1064.941406 508.519531 1060.800781 Z M 508.519531 1060.800781 " clip-rule="nonzero"/></clipPath><clipPath id="f5fc3fb09a"><path d="M 0.519531 0.199219 L 233.585938 0.199219 L 233.585938 779.300781 L 0.519531 779.300781 Z M 0.519531 0.199219 " clip-rule="nonzero"/></clipPath><clipPath id="6f9aaa999a"><path d="M 0.519531 771.800781 L 0.519531 7.921875 C 0.519531 3.78125 3.878906 0.421875 8.019531 0.421875 L 226.085938 0.421875 C 230.226562 0.421875 233.585938 3.78125 233.585938 7.921875 L 233.585938 771.800781 C 233.585938 775.941406 230.226562 779.300781 226.085938 779.300781 L 8.019531 779.300781 C 3.878906 779.300781 0.519531 775.941406 0.519531 771.800781 Z M 0.519531 771.800781 " clip-rule="nonzero"/></clipPath><clipPath id="5862cc0138"><rect x="0" width="234" y="0" height="780"/></clipPath><clipPath id="39423d1197"><path d="M 758.410156 289.242188 L 991.476562 289.242188 L 991.476562 835.488281 L 758.410156 835.488281 Z M 758.410156 289.242188 " clip-rule="nonzero"/></clipPath><clipPath id="53d080225b"><path d="M 758.410156 827.988281 L 758.410156 296.921875 C 758.410156 292.777344 761.769531 289.421875 765.910156 289.421875 L 983.976562 289.421875 C 988.117188 289.421875 991.476562 292.777344 991.476562 296.921875 L 991.476562 827.988281 C 991.476562 832.128906 988.117188 835.488281 983.976562 835.488281 L 765.910156 835.488281 C 761.769531 835.488281 758.410156 832.128906 758.410156 827.988281 Z M 758.410156 827.988281 " clip-rule="nonzero"/></clipPath><clipPath id="46d5cbf80b"><path d="M 0.410156 0.242188 L 233.476562 0.242188 L 233.476562 546.488281 L 0.410156 546.488281 Z M 0.410156 0.242188 " clip-rule="nonzero"/></clipPath><clipPath id="b522b2dbb3"><path d="M 0.410156 538.988281 L 0.410156 7.921875 C 0.410156 3.777344 3.769531 0.421875 7.910156 0.421875 L 225.976562 0.421875 C 230.117188 0.421875 233.476562 3.777344 233.476562 7.921875 L 233.476562 538.988281 C 233.476562 543.128906 230.117188 546.488281 225.976562 546.488281 L 7.910156 546.488281 C 3.769531 546.488281 0.410156 543.128906 0.410156 538.988281 Z M 0.410156 538.988281 " clip-rule="nonzero"/></clipPath><clipPath id="698022960e"><rect x="0" width="234" y="0" height="547"/></clipPath><clipPath id="73caff2abd"><path d="M 508.519531 1083 L 741.582031 1083 L 741.582031 1458.855469 L 508.519531 1458.855469 Z M 508.519531 1083 " clip-rule="nonzero"/></clipPath><clipPath id="0e294e24a5"><path d="M 508.519531 1451.355469 L 508.519531 1091.101562 C 508.519531 1086.960938 511.875 1083.601562 516.019531 1083.601562 L 734.082031 1083.601562 C 738.226562 1083.601562 741.582031 1086.960938 741.582031 1091.101562 L 741.582031 1451.355469 C 741.582031 1455.5 738.226562 1458.855469 734.082031 1458.855469 L 516.019531 1458.855469 C 511.875 1458.855469 508.519531 1455.5 508.519531 1451.355469 Z M 508.519531 1451.355469 " clip-rule="nonzero"/></clipPath><clipPath id="1f3af4256b"><path d="M 0.519531 0.601562 L 233.582031 0.601562 L 233.582031 375.855469 L 0.519531 375.855469 Z M 0.519531 0.601562 " clip-rule="nonzero"/></clipPath><clipPath id="b9bfcffb8c"><path d="M 0.519531 368.355469 L 0.519531 8.101562 C 0.519531 3.960938 3.875 0.601562 8.019531 0.601562 L 226.082031 0.601562 C 230.226562 0.601562 233.582031 3.960938 233.582031 8.101562 L 233.582031 368.355469 C 233.582031 372.5 230.226562 375.855469 226.082031 375.855469 L 8.019531 375.855469 C 3.875 375.855469 0.519531 372.5 0.519531 368.355469 Z M 0.519531 368.355469 " clip-rule="nonzero"/></clipPath><clipPath id="e9f8042136"><rect x="0" width="234" y="0" height="376"/></clipPath><clipPath id="b66c640880"><path d="M 758.414062 850.527344 L 991.480469 850.527344 L 991.480469 1458.683594 L 758.414062 1458.683594 Z M 758.414062 850.527344 " clip-rule="nonzero"/></clipPath><clipPath id="f4c32f395c"><path d="M 758.414062 1451.183594 L 758.414062 858.117188 C 758.414062 853.976562 761.773438 850.617188 765.914062 850.617188 L 983.980469 850.617188 C 988.121094 850.617188 991.480469 853.976562 991.480469 858.117188 L 991.480469 1451.183594 C 991.480469 1455.324219 988.121094 1458.683594 983.980469 1458.683594 L 765.914062 1458.683594 C 761.773438 1458.683594 758.414062 1455.324219 758.414062 1451.183594 Z M 758.414062 1451.183594 " clip-rule="nonzero"/></clipPath><clipPath id="c4ccd4987d"><path d="M 0.414062 0.558594 L 233.480469 0.558594 L 233.480469 608.683594 L 0.414062 608.683594 Z M 0.414062 0.558594 " clip-rule="nonzero"/></clipPath><clipPath id="9a41e1a943"><path d="M 0.414062 601.183594 L 0.414062 8.117188 C 0.414062 3.976562 3.773438 0.617188 7.914062 0.617188 L 225.980469 0.617188 C 230.121094 0.617188 233.480469 3.976562 233.480469 8.117188 L 233.480469 601.183594 C 233.480469 605.324219 230.121094 608.683594 225.980469 608.683594 L 7.914062 608.683594 C 3.773438 608.683594 0.414062 605.324219 0.414062 601.183594 Z M 0.414062 601.183594 " clip-rule="nonzero"/></clipPath><clipPath id="6e62481db2"><rect x="0" width="234" y="0" height="609"/></clipPath></defs><g clip-path="url(#34d22445c1)"><g clip-path="url(#36499a8496)"><g transform="matrix(1, 0, 0, 1, 47, 41)"><g clip-path="url(#194bb125d7)"><g clip-path="url(#8b80286dfa)"><g clip-path="url(#6380c1a4d3)"><path fill="#737373" d="M 0.988281 0.140625 L 694.722656 0.140625 L 694.722656 233.203125 L 0.988281 233.203125 Z M 0.988281 0.140625 " fill-opacity="1" fill-rule="nonzero"/></g></g></g></g></g></g><g clip-path="url(#6b56b20b55)"><g clip-path="url(#cdd1b09b27)"><g transform="matrix(1, 0, 0, 1, 758, 41)"><g clip-path="url(#5f505e3c03)"><g clip-path="url(#d45908d0ff)"><g clip-path="url(#8d21ccf76a)"><path fill="#000000" d="M 0.414062 0.234375 L 694.148438 0.234375 L 694.148438 233.296875 L 0.414062 233.296875 Z M 0.414062 0.234375 " fill-opacity="1" fill-rule="nonzero"/></g></g></g></g></g></g><g clip-path="url(#a5c897d477)"><g clip-path="url(#3ca63dbab7)"><g transform="matrix(1, 0, 0, 1, 508, 289)"><g clip-path="url(#5862cc0138)"><g clip-path="url(#f5fc3fb09a)"><g clip-path="url(#6f9aaa999a)"><path fill="#000000" d="M 0.519531 779.300781 L 0.519531 -0.0117188 L 233.585938 -0.0117188 L 233.585938 779.300781 Z M 0.519531 779.300781 " fill-opacity="1" fill-rule="nonzero"/></g></g></g></g></g></g><g clip-path="url(#39423d1197)"><g clip-path="url(#53d080225b)"><g transform="matrix(1, 0, 0, 1, 758, 289)"><g clip-path="url(#698022960e)"><g clip-path="url(#46d5cbf80b)"><g clip-path="url(#b522b2dbb3)"><path fill="#000000" d="M 0.410156 546.488281 L 0.410156 0.242188 L 233.476562 0.242188 L 233.476562 546.488281 Z M 0.410156 546.488281 " fill-opacity="1" fill-rule="nonzero"/></g></g></g></g></g></g><g clip-path="url(#73caff2abd)"><g clip-path="url(#0e294e24a5)"><g transform="matrix(1, 0, 0, 1, 508, 1083)"><g clip-path="url(#e9f8042136)"><g clip-path="url(#1f3af4256b)"><g clip-path="url(#b9bfcffb8c)"><path fill="#000000" d="M 0.519531 375.855469 L 0.519531 0.765625 L 233.582031 0.765625 L 233.582031 375.855469 Z M 0.519531 375.855469 " fill-opacity="1" fill-rule="nonzero"/></g></g></g></g></g></g><g clip-path="url(#b66c640880)"><g clip-path="url(#f4c32f395c)"><g transform="matrix(1, 0, 0, 1, 758, 850)"><g clip-path="url(#6e62481db2)"><g clip-path="url(#c4ccd4987d)"><g clip-path="url(#9a41e1a943)"><path fill="#737373" d="M 0.414062 608.683594 L 0.414062 0.527344 L 233.480469 0.527344 L 233.480469 608.683594 Z M 0.414062 608.683594 " fill-opacity="1" fill-rule="nonzero"/></g></g></g></g></g></g></svg>