<svg xmlns="http://www.w3.org/2000/svg" xmlns:xlink="http://www.w3.org/1999/xlink" width="2000" zoomAndPan="magnify" viewBox="0 0 1500 1499.999933" height="2000" preserveAspectRatio="xMidYMid meet" version="1.0"><defs><clipPath id="43dc1bac7a"><path d="M 40.003906 27.289062 L 743 27.289062 L 743 263.507812 L 40.003906 263.507812 Z M 40.003906 27.289062 " clip-rule="nonzero"/></clipPath><clipPath id="9ada86b4a5"><path d="M 51.253906 27.289062 L 731.738281 27.289062 C 737.953125 27.289062 742.988281 32.328125 742.988281 38.539062 L 742.988281 252.257812 C 742.988281 258.472656 737.953125 263.507812 731.738281 263.507812 L 51.253906 263.507812 C 45.039062 263.507812 40.003906 258.472656 40.003906 252.257812 L 40.003906 38.539062 C 40.003906 32.328125 45.039062 27.289062 51.253906 27.289062 Z M 51.253906 27.289062 " clip-rule="nonzero"/></clipPath><clipPath id="b09a2646eb"><path d="M 0.00390625 0.289062 L 703 0.289062 L 703 236.507812 L 0.00390625 236.507812 Z M 0.00390625 0.289062 " clip-rule="nonzero"/></clipPath><clipPath id="22034db6bb"><path d="M 11.253906 0.289062 L 691.738281 0.289062 C 697.953125 0.289062 702.988281 5.328125 702.988281 11.539062 L 702.988281 225.257812 C 702.988281 231.472656 697.953125 236.507812 691.738281 236.507812 L 11.253906 236.507812 C 5.039062 236.507812 0.00390625 231.472656 0.00390625 225.257812 L 0.00390625 11.539062 C 0.00390625 5.328125 5.039062 0.289062 11.253906 0.289062 Z M 11.253906 0.289062 " clip-rule="nonzero"/></clipPath><clipPath id="0e4d771ae7"><rect x="0" width="703" y="0" height="237"/></clipPath><clipPath id="f55f0e42fd"><path d="M 757.011719 27.289062 L 1460 27.289062 L 1460 263.507812 L 757.011719 263.507812 Z M 757.011719 27.289062 " clip-rule="nonzero"/></clipPath><clipPath id="4b149f8b40"><path d="M 768.261719 27.289062 L 1448.746094 27.289062 C 1454.960938 27.289062 1459.996094 32.328125 1459.996094 38.539062 L 1459.996094 252.257812 C 1459.996094 258.472656 1454.960938 263.507812 1448.746094 263.507812 L 768.261719 263.507812 C 762.046875 263.507812 757.011719 258.472656 757.011719 252.257812 L 757.011719 38.539062 C 757.011719 32.328125 762.046875 27.289062 768.261719 27.289062 Z M 768.261719 27.289062 " clip-rule="nonzero"/></clipPath><clipPath id="b684924c96"><path d="M 0.0117188 0.289062 L 703 0.289062 L 703 236.507812 L 0.0117188 236.507812 Z M 0.0117188 0.289062 " clip-rule="nonzero"/></clipPath><clipPath id="5b53a1b512"><path d="M 11.261719 0.289062 L 691.746094 0.289062 C 697.960938 0.289062 702.996094 5.328125 702.996094 11.539062 L 702.996094 225.257812 C 702.996094 231.472656 697.960938 236.507812 691.746094 236.507812 L 11.261719 236.507812 C 5.046875 236.507812 0.0117188 231.472656 0.0117188 225.257812 L 0.0117188 11.539062 C 0.0117188 5.328125 5.046875 0.289062 11.261719 0.289062 Z M 11.261719 0.289062 " clip-rule="nonzero"/></clipPath><clipPath id="5eea606c4e"><rect x="0" width="703" y="0" height="237"/></clipPath><clipPath id="344d2c3aff"><path d="M 506.769531 283 L 742.988281 283 L 742.988281 1072.789062 L 506.769531 1072.789062 Z M 506.769531 283 " clip-rule="nonzero"/></clipPath><clipPath id="9024e50364"><path d="M 506.769531 1061.539062 L 506.769531 294.621094 C 506.769531 288.40625 511.804688 283.371094 518.019531 283.371094 L 731.738281 283.371094 C 737.949219 283.371094 742.988281 288.40625 742.988281 294.621094 L 742.988281 1061.539062 C 742.988281 1067.75 737.949219 1072.789062 731.738281 1072.789062 L 518.019531 1072.789062 C 511.804688 1072.789062 506.769531 1067.75 506.769531 1061.539062 Z M 506.769531 1061.539062 " clip-rule="nonzero"/></clipPath><clipPath id="7e709da85f"><path d="M 0.769531 0.199219 L 236.988281 0.199219 L 236.988281 789.789062 L 0.769531 789.789062 Z M 0.769531 0.199219 " clip-rule="nonzero"/></clipPath><clipPath id="01cd0816c3"><path d="M 0.769531 778.539062 L 0.769531 11.621094 C 0.769531 5.40625 5.804688 0.371094 12.019531 0.371094 L 225.738281 0.371094 C 231.949219 0.371094 236.988281 5.40625 236.988281 11.621094 L 236.988281 778.539062 C 236.988281 784.75 231.949219 789.789062 225.738281 789.789062 L 12.019531 789.789062 C 5.804688 789.789062 0.769531 784.75 0.769531 778.539062 Z M 0.769531 778.539062 " clip-rule="nonzero"/></clipPath><clipPath id="8ef54fc471"><rect x="0" width="237" y="0" height="790"/></clipPath><clipPath id="ed35d373c3"><path d="M 757.011719 283.191406 L 993.230469 283.191406 L 993.230469 836.828125 L 757.011719 836.828125 Z M 757.011719 283.191406 " clip-rule="nonzero"/></clipPath><clipPath id="4d18050416"><path d="M 757.011719 825.578125 L 757.011719 294.621094 C 757.011719 288.410156 762.050781 283.371094 768.261719 283.371094 L 981.980469 283.371094 C 988.195312 283.371094 993.230469 288.410156 993.230469 294.621094 L 993.230469 825.578125 C 993.230469 831.792969 988.195312 836.828125 981.980469 836.828125 L 768.261719 836.828125 C 762.050781 836.828125 757.011719 831.792969 757.011719 825.578125 Z M 757.011719 825.578125 " clip-rule="nonzero"/></clipPath><clipPath id="bd8cca526a"><path d="M 0.0117188 0.199219 L 236.230469 0.199219 L 236.230469 553.828125 L 0.0117188 553.828125 Z M 0.0117188 0.199219 " clip-rule="nonzero"/></clipPath><clipPath id="741fd0a52a"><path d="M 0.0117188 542.578125 L 0.0117188 11.621094 C 0.0117188 5.410156 5.050781 0.371094 11.261719 0.371094 L 224.980469 0.371094 C 231.195312 0.371094 236.230469 5.410156 236.230469 11.621094 L 236.230469 542.578125 C 236.230469 548.792969 231.195312 553.828125 224.980469 553.828125 L 11.261719 553.828125 C 5.050781 553.828125 0.0117188 548.792969 0.0117188 542.578125 Z M 0.0117188 542.578125 " clip-rule="nonzero"/></clipPath><clipPath id="68e30059d3"><rect x="0" width="237" y="0" height="554"/></clipPath><clipPath id="19b59555b4"><path d="M 506.765625 1092 L 742.984375 1092 L 742.984375 1472.703125 L 506.765625 1472.703125 Z M 506.765625 1092 " clip-rule="nonzero"/></clipPath><clipPath id="44b26e3361"><path d="M 506.765625 1461.453125 L 506.765625 1103.621094 C 506.765625 1097.40625 511.800781 1092.371094 518.015625 1092.371094 L 731.734375 1092.371094 C 737.949219 1092.371094 742.984375 1097.40625 742.984375 1103.621094 L 742.984375 1461.453125 C 742.984375 1467.664062 737.949219 1472.703125 731.734375 1472.703125 L 518.015625 1472.703125 C 511.800781 1472.703125 506.765625 1467.664062 506.765625 1461.453125 Z M 506.765625 1461.453125 " clip-rule="nonzero"/></clipPath><clipPath id="1b179a5f86"><path d="M 0.765625 0.238281 L 236.984375 0.238281 L 236.984375 380.703125 L 0.765625 380.703125 Z M 0.765625 0.238281 " clip-rule="nonzero"/></clipPath><clipPath id="d6b68be9ca"><path d="M 0.765625 369.453125 L 0.765625 11.621094 C 0.765625 5.40625 5.800781 0.371094 12.015625 0.371094 L 225.734375 0.371094 C 231.949219 0.371094 236.984375 5.40625 236.984375 11.621094 L 236.984375 369.453125 C 236.984375 375.664062 231.949219 380.703125 225.734375 380.703125 L 12.015625 380.703125 C 5.800781 380.703125 0.765625 375.664062 0.765625 369.453125 Z M 0.765625 369.453125 " clip-rule="nonzero"/></clipPath><clipPath id="22da66564d"><rect x="0" width="237" y="0" height="381"/></clipPath><clipPath id="349f7bea1f"><path d="M 757.011719 856.320312 L 993.230469 856.320312 L 993.230469 1472.707031 L 757.011719 1472.707031 Z M 757.011719 856.320312 " clip-rule="nonzero"/></clipPath><clipPath id="3e2a67c243"><path d="M 757.011719 1461.457031 L 757.011719 867.664062 C 757.011719 861.449219 762.050781 856.414062 768.261719 856.414062 L 981.980469 856.414062 C 988.195312 856.414062 993.230469 861.449219 993.230469 867.664062 L 993.230469 1461.457031 C 993.230469 1467.667969 988.195312 1472.707031 981.980469 1472.707031 L 768.261719 1472.707031 C 762.050781 1472.707031 757.011719 1467.667969 757.011719 1461.457031 Z M 757.011719 1461.457031 " clip-rule="nonzero"/></clipPath><clipPath id="7fba68f3fc"><path d="M 0.0117188 0.320312 L 236.230469 0.320312 L 236.230469 616.707031 L 0.0117188 616.707031 Z M 0.0117188 0.320312 " clip-rule="nonzero"/></clipPath><clipPath id="8fe673358c"><path d="M 0.0117188 605.457031 L 0.0117188 11.664062 C 0.0117188 5.449219 5.050781 0.414062 11.261719 0.414062 L 224.980469 0.414062 C 231.195312 0.414062 236.230469 5.449219 236.230469 11.664062 L 236.230469 605.457031 C 236.230469 611.667969 231.195312 616.707031 224.980469 616.707031 L 11.261719 616.707031 C 5.050781 616.707031 0.0117188 611.667969 0.0117188 605.457031 Z M 0.0117188 605.457031 " clip-rule="nonzero"/></clipPath><clipPath id="92f25820ce"><rect x="0" width="237" y="0" height="617"/></clipPath></defs><g clip-path="url(#43dc1bac7a)"><g clip-path="url(#9ada86b4a5)"><g transform="matrix(1, 0, 0, 1, 40, 27)"><g clip-path="url(#0e4d771ae7)"><g clip-path="url(#b09a2646eb)"><g clip-path="url(#22034db6bb)"><path fill="#bbbbbc" d="M 0.00390625 0.289062 L 703.125 0.289062 L 703.125 236.507812 L 0.00390625 236.507812 Z M 0.00390625 0.289062 " fill-opacity="1" fill-rule="nonzero"/></g></g></g></g></g></g><g clip-path="url(#f55f0e42fd)"><g clip-path="url(#4b149f8b40)"><g transform="matrix(1, 0, 0, 1, 757, 27)"><g clip-path="url(#5eea606c4e)"><g clip-path="url(#b684924c96)"><g clip-path="url(#5b53a1b512)"><path fill="#ffffff" d="M 0.0117188 0.289062 L 703.132812 0.289062 L 703.132812 236.507812 L 0.0117188 236.507812 Z M 0.0117188 0.289062 " fill-opacity="1" fill-rule="nonzero"/></g></g></g></g></g></g><g clip-path="url(#344d2c3aff)"><g clip-path="url(#9024e50364)"><g transform="matrix(1, 0, 0, 1, 506, 283)"><g clip-path="url(#8ef54fc471)"><g clip-path="url(#7e709da85f)"><g clip-path="url(#01cd0816c3)"><path fill="#ffffff" d="M 0.769531 789.789062 L 0.769531 -0.0703125 L 236.988281 -0.0703125 L 236.988281 789.789062 Z M 0.769531 789.789062 " fill-opacity="1" fill-rule="nonzero"/></g></g></g></g></g></g><g clip-path="url(#ed35d373c3)"><g clip-path="url(#4d18050416)"><g transform="matrix(1, 0, 0, 1, 757, 283)"><g clip-path="url(#68e30059d3)"><g clip-path="url(#bd8cca526a)"><g clip-path="url(#741fd0a52a)"><path fill="#ffffff" d="M 0.0117188 553.828125 L 0.0117188 0.191406 L 236.230469 0.191406 L 236.230469 553.828125 Z M 0.0117188 553.828125 " fill-opacity="1" fill-rule="nonzero"/></g></g></g></g></g></g><g clip-path="url(#19b59555b4)"><g clip-path="url(#44b26e3361)"><g transform="matrix(1, 0, 0, 1, 506, 1092)"><g clip-path="url(#22da66564d)"><g clip-path="url(#1b179a5f86)"><g clip-path="url(#d6b68be9ca)"><path fill="#ffffff" d="M 0.765625 380.703125 L 0.765625 0.535156 L 236.984375 0.535156 L 236.984375 380.703125 Z M 0.765625 380.703125 " fill-opacity="1" fill-rule="nonzero"/></g></g></g></g></g></g><g clip-path="url(#349f7bea1f)"><g clip-path="url(#3e2a67c243)"><g transform="matrix(1, 0, 0, 1, 757, 856)"><g clip-path="url(#92f25820ce)"><g clip-path="url(#7fba68f3fc)"><g clip-path="url(#8fe673358c)"><path fill="#bbbbbb" d="M 0.0117188 616.707031 L 0.0117188 0.320312 L 236.230469 0.320312 L 236.230469 616.707031 Z M 0.0117188 616.707031 " fill-opacity="1" fill-rule="nonzero"/></g></g></g></g></g></g></svg>