<svg xmlns="http://www.w3.org/2000/svg" xmlns:xlink="http://www.w3.org/1999/xlink" width="2000" zoomAndPan="magnify" viewBox="0 0 1500 1499.999933" height="2000" preserveAspectRatio="xMidYMid meet" version="1.0"><defs><clipPath id="b8d6344145"><path d="M 150 150 L 278.265625 150 L 278.265625 278.265625 L 150 278.265625 Z M 150 150 " clip-rule="nonzero"/></clipPath><clipPath id="bd548a1dab"><path d="M 0 0 L 128.265625 0 L 128.265625 128.265625 L 0 128.265625 Z M 0 0 " clip-rule="nonzero"/></clipPath><clipPath id="09e1798128"><rect x="0" width="129" y="0" height="129"/></clipPath><clipPath id="88d3de5d4e"><path d="M 283.964844 150 L 412.234375 150 L 412.234375 278.265625 L 283.964844 278.265625 Z M 283.964844 150 " clip-rule="nonzero"/></clipPath><clipPath id="5e108ba351"><path d="M 0.964844 0 L 129.234375 0 L 129.234375 128.265625 L 0.964844 128.265625 Z M 0.964844 0 " clip-rule="nonzero"/></clipPath><clipPath id="c25408dc59"><rect x="0" width="130" y="0" height="129"/></clipPath><clipPath id="6ab2794576"><path d="M 417.933594 150 L 546.199219 150 L 546.199219 278.265625 L 417.933594 278.265625 Z M 417.933594 150 " clip-rule="nonzero"/></clipPath><clipPath id="c04f10bf1d"><path d="M 0.933594 0 L 129.199219 0 L 129.199219 128.265625 L 0.933594 128.265625 Z M 0.933594 0 " clip-rule="nonzero"/></clipPath><clipPath id="86ad412cdd"><rect x="0" width="130" y="0" height="129"/></clipPath><clipPath id="747bb9b53c"><path d="M 551.898438 150 L 680.167969 150 L 680.167969 278.265625 L 551.898438 278.265625 Z M 551.898438 150 " clip-rule="nonzero"/></clipPath><clipPath id="64da721e23"><path d="M 0.898438 0 L 129.167969 0 L 129.167969 128.265625 L 0.898438 128.265625 Z M 0.898438 0 " clip-rule="nonzero"/></clipPath><clipPath id="42ac6fce81"><rect x="0" width="130" y="0" height="129"/></clipPath><clipPath id="d8b3cb3bec"><path d="M 685.867188 150 L 814.132812 150 L 814.132812 278.265625 L 685.867188 278.265625 Z M 685.867188 150 " clip-rule="nonzero"/></clipPath><clipPath id="d5396d54fa"><path d="M 0.867188 0 L 129.132812 0 L 129.132812 128.265625 L 0.867188 128.265625 Z M 0.867188 0 " clip-rule="nonzero"/></clipPath><clipPath id="189f141fa6"><rect x="0" width="130" y="0" height="129"/></clipPath><clipPath id="022795a5e5"><path d="M 819.832031 150 L 948.101562 150 L 948.101562 278.265625 L 819.832031 278.265625 Z M 819.832031 150 " clip-rule="nonzero"/></clipPath><clipPath id="b4bba00b99"><path d="M 0.832031 0 L 129.101562 0 L 129.101562 128.265625 L 0.832031 128.265625 Z M 0.832031 0 " clip-rule="nonzero"/></clipPath><clipPath id="19a99fe88a"><rect x="0" width="130" y="0" height="129"/></clipPath><clipPath id="6202087a44"><path d="M 953.800781 150 L 1082.066406 150 L 1082.066406 278.265625 L 953.800781 278.265625 Z M 953.800781 150 " clip-rule="nonzero"/></clipPath><clipPath id="40a729adca"><path d="M 0.800781 0 L 129.066406 0 L 129.066406 128.265625 L 0.800781 128.265625 Z M 0.800781 0 " clip-rule="nonzero"/></clipPath><clipPath id="ce20cce3bf"><rect x="0" width="130" y="0" height="129"/></clipPath><clipPath id="5db0a608c5"><path d="M 1087.765625 150 L 1216.03125 150 L 1216.03125 278.265625 L 1087.765625 278.265625 Z M 1087.765625 150 " clip-rule="nonzero"/></clipPath><clipPath id="c546f85872"><path d="M 0.765625 0 L 129.03125 0 L 129.03125 128.265625 L 0.765625 128.265625 Z M 0.765625 0 " clip-rule="nonzero"/></clipPath><clipPath id="93482f0cd1"><rect x="0" width="130" y="0" height="129"/></clipPath><clipPath id="1a9a89cd40"><path d="M 1221.734375 150 L 1350 150 L 1350 278.265625 L 1221.734375 278.265625 Z M 1221.734375 150 " clip-rule="nonzero"/></clipPath><clipPath id="fe5c726c9d"><path d="M 0.734375 0 L 129 0 L 129 128.265625 L 0.734375 128.265625 Z M 0.734375 0 " clip-rule="nonzero"/></clipPath><clipPath id="3554460100"><rect x="0" width="129" y="0" height="129"/></clipPath><clipPath id="bb9a3c3bd9"><path d="M 150 283.949219 L 278.265625 283.949219 L 278.265625 412.214844 L 150 412.214844 Z M 150 283.949219 " clip-rule="nonzero"/></clipPath><clipPath id="aabadc3e50"><path d="M 0 0.949219 L 128.265625 0.949219 L 128.265625 129.214844 L 0 129.214844 Z M 0 0.949219 " clip-rule="nonzero"/></clipPath><clipPath id="a1652db9cd"><rect x="0" width="129" y="0" height="130"/></clipPath><clipPath id="3580abb97a"><path d="M 283.964844 283.949219 L 412.234375 283.949219 L 412.234375 412.214844 L 283.964844 412.214844 Z M 283.964844 283.949219 " clip-rule="nonzero"/></clipPath><clipPath id="cc7aa27e00"><path d="M 0.964844 0.949219 L 129.234375 0.949219 L 129.234375 129.214844 L 0.964844 129.214844 Z M 0.964844 0.949219 " clip-rule="nonzero"/></clipPath><clipPath id="ade875c2d0"><rect x="0" width="130" y="0" height="130"/></clipPath><clipPath id="4f39161a55"><path d="M 417.933594 283.949219 L 546.199219 283.949219 L 546.199219 412.214844 L 417.933594 412.214844 Z M 417.933594 283.949219 " clip-rule="nonzero"/></clipPath><clipPath id="16c226e3a1"><path d="M 0.933594 0.949219 L 129.199219 0.949219 L 129.199219 129.214844 L 0.933594 129.214844 Z M 0.933594 0.949219 " clip-rule="nonzero"/></clipPath><clipPath id="bf041938ee"><rect x="0" width="130" y="0" height="130"/></clipPath><clipPath id="c8c6a94b25"><path d="M 551.898438 283.949219 L 680.167969 283.949219 L 680.167969 412.214844 L 551.898438 412.214844 Z M 551.898438 283.949219 " clip-rule="nonzero"/></clipPath><clipPath id="4961531b4f"><path d="M 0.898438 0.949219 L 129.167969 0.949219 L 129.167969 129.214844 L 0.898438 129.214844 Z M 0.898438 0.949219 " clip-rule="nonzero"/></clipPath><clipPath id="1c7efaea7e"><rect x="0" width="130" y="0" height="130"/></clipPath><clipPath id="f789c151bb"><path d="M 685.867188 283.949219 L 814.132812 283.949219 L 814.132812 412.214844 L 685.867188 412.214844 Z M 685.867188 283.949219 " clip-rule="nonzero"/></clipPath><clipPath id="7dbc751ed5"><path d="M 0.867188 0.949219 L 129.132812 0.949219 L 129.132812 129.214844 L 0.867188 129.214844 Z M 0.867188 0.949219 " clip-rule="nonzero"/></clipPath><clipPath id="6ccd30bd8a"><rect x="0" width="130" y="0" height="130"/></clipPath><clipPath id="ca94dd0666"><path d="M 819.832031 283.949219 L 948.101562 283.949219 L 948.101562 412.214844 L 819.832031 412.214844 Z M 819.832031 283.949219 " clip-rule="nonzero"/></clipPath><clipPath id="0e285f9309"><path d="M 0.832031 0.949219 L 129.101562 0.949219 L 129.101562 129.214844 L 0.832031 129.214844 Z M 0.832031 0.949219 " clip-rule="nonzero"/></clipPath><clipPath id="627f00530f"><rect x="0" width="130" y="0" height="130"/></clipPath><clipPath id="cd75c3d62c"><path d="M 953.800781 283.949219 L 1082.066406 283.949219 L 1082.066406 412.214844 L 953.800781 412.214844 Z M 953.800781 283.949219 " clip-rule="nonzero"/></clipPath><clipPath id="c62aaf98e8"><path d="M 0.800781 0.949219 L 129.066406 0.949219 L 129.066406 129.214844 L 0.800781 129.214844 Z M 0.800781 0.949219 " clip-rule="nonzero"/></clipPath><clipPath id="90755ba5a3"><rect x="0" width="130" y="0" height="130"/></clipPath><clipPath id="6bc0b8e60c"><path d="M 1087.765625 283.949219 L 1216.03125 283.949219 L 1216.03125 412.214844 L 1087.765625 412.214844 Z M 1087.765625 283.949219 " clip-rule="nonzero"/></clipPath><clipPath id="d2a5d8367f"><path d="M 0.765625 0.949219 L 129.03125 0.949219 L 129.03125 129.214844 L 0.765625 129.214844 Z M 0.765625 0.949219 " clip-rule="nonzero"/></clipPath><clipPath id="4077a28291"><rect x="0" width="130" y="0" height="130"/></clipPath><clipPath id="e5fdd57034"><path d="M 1221.734375 283.949219 L 1350 283.949219 L 1350 412.214844 L 1221.734375 412.214844 Z M 1221.734375 283.949219 " clip-rule="nonzero"/></clipPath><clipPath id="13ccb93c76"><path d="M 0.734375 0.949219 L 129 0.949219 L 129 129.214844 L 0.734375 129.214844 Z M 0.734375 0.949219 " clip-rule="nonzero"/></clipPath><clipPath id="7a14df5887"><rect x="0" width="129" y="0" height="130"/></clipPath><clipPath id="6ec08efbe0"><path d="M 150 418.214844 L 278.265625 418.214844 L 278.265625 546.480469 L 150 546.480469 Z M 150 418.214844 " clip-rule="nonzero"/></clipPath><clipPath id="7b0d968920"><path d="M 0 0.214844 L 128.265625 0.214844 L 128.265625 128.480469 L 0 128.480469 Z M 0 0.214844 " clip-rule="nonzero"/></clipPath><clipPath id="2dd497cbc2"><rect x="0" width="129" y="0" height="129"/></clipPath><clipPath id="9ce632ca63"><path d="M 283.964844 418.214844 L 412.234375 418.214844 L 412.234375 546.480469 L 283.964844 546.480469 Z M 283.964844 418.214844 " clip-rule="nonzero"/></clipPath><clipPath id="79d4f922eb"><path d="M 0.964844 0.214844 L 129.234375 0.214844 L 129.234375 128.480469 L 0.964844 128.480469 Z M 0.964844 0.214844 " clip-rule="nonzero"/></clipPath><clipPath id="6fc782f6c9"><rect x="0" width="130" y="0" height="129"/></clipPath><clipPath id="eefc46f05a"><path d="M 417.933594 418.214844 L 546.199219 418.214844 L 546.199219 546.480469 L 417.933594 546.480469 Z M 417.933594 418.214844 " clip-rule="nonzero"/></clipPath><clipPath id="8122b3c7af"><path d="M 0.933594 0.214844 L 129.199219 0.214844 L 129.199219 128.480469 L 0.933594 128.480469 Z M 0.933594 0.214844 " clip-rule="nonzero"/></clipPath><clipPath id="6754ba0396"><rect x="0" width="130" y="0" height="129"/></clipPath><clipPath id="6e57a3a84f"><path d="M 685.867188 418.214844 L 814.132812 418.214844 L 814.132812 546.480469 L 685.867188 546.480469 Z M 685.867188 418.214844 " clip-rule="nonzero"/></clipPath><clipPath id="55611240d8"><path d="M 0.867188 0.214844 L 129.132812 0.214844 L 129.132812 128.480469 L 0.867188 128.480469 Z M 0.867188 0.214844 " clip-rule="nonzero"/></clipPath><clipPath id="fd694f437f"><rect x="0" width="130" y="0" height="129"/></clipPath><clipPath id="5a7e95d36c"><path d="M 953.800781 418.214844 L 1082.066406 418.214844 L 1082.066406 546.480469 L 953.800781 546.480469 Z M 953.800781 418.214844 " clip-rule="nonzero"/></clipPath><clipPath id="8c8d95e9ac"><path d="M 0.800781 0.214844 L 129.066406 0.214844 L 129.066406 128.480469 L 0.800781 128.480469 Z M 0.800781 0.214844 " clip-rule="nonzero"/></clipPath><clipPath id="5b09ba076d"><rect x="0" width="130" y="0" height="129"/></clipPath><clipPath id="0ac27999e5"><path d="M 1087.765625 418.214844 L 1216.03125 418.214844 L 1216.03125 546.480469 L 1087.765625 546.480469 Z M 1087.765625 418.214844 " clip-rule="nonzero"/></clipPath><clipPath id="3ba912ff06"><path d="M 0.765625 0.214844 L 129.03125 0.214844 L 129.03125 128.480469 L 0.765625 128.480469 Z M 0.765625 0.214844 " clip-rule="nonzero"/></clipPath><clipPath id="c97877d92b"><rect x="0" width="130" y="0" height="129"/></clipPath><clipPath id="e665ed8f81"><path d="M 1221.734375 418.214844 L 1350 418.214844 L 1350 546.480469 L 1221.734375 546.480469 Z M 1221.734375 418.214844 " clip-rule="nonzero"/></clipPath><clipPath id="e713289334"><path d="M 0.734375 0.214844 L 129 0.214844 L 129 128.480469 L 0.734375 128.480469 Z M 0.734375 0.214844 " clip-rule="nonzero"/></clipPath><clipPath id="95a31cbf0b"><rect x="0" width="129" y="0" height="129"/></clipPath><clipPath id="98f4cfaaef"><path d="M 551.898438 1356.277344 L 680.167969 1356.277344 L 680.167969 1484.542969 L 551.898438 1484.542969 Z M 551.898438 1356.277344 " clip-rule="nonzero"/></clipPath><clipPath id="5e8e9f5a43"><path d="M 0.898438 0.277344 L 129.167969 0.277344 L 129.167969 128.542969 L 0.898438 128.542969 Z M 0.898438 0.277344 " clip-rule="nonzero"/></clipPath><clipPath id="df64130668"><rect x="0" width="130" y="0" height="129"/></clipPath><clipPath id="31509237aa"><path d="M 551.898438 1088.34375 L 680.167969 1088.34375 L 680.167969 1216.609375 L 551.898438 1216.609375 Z M 551.898438 1088.34375 " clip-rule="nonzero"/></clipPath><clipPath id="794ad1bdcc"><path d="M 0.898438 0.34375 L 129.167969 0.34375 L 129.167969 128.609375 L 0.898438 128.609375 Z M 0.898438 0.34375 " clip-rule="nonzero"/></clipPath><clipPath id="64d090c078"><rect x="0" width="130" y="0" height="129"/></clipPath><clipPath id="871776bd91"><path d="M 551.898438 820.410156 L 680.167969 820.410156 L 680.167969 948.675781 L 551.898438 948.675781 Z M 551.898438 820.410156 " clip-rule="nonzero"/></clipPath><clipPath id="4334ee1bf5"><path d="M 0.898438 0.410156 L 129.167969 0.410156 L 129.167969 128.675781 L 0.898438 128.675781 Z M 0.898438 0.410156 " clip-rule="nonzero"/></clipPath><clipPath id="5563443e41"><rect x="0" width="130" y="0" height="129"/></clipPath><clipPath id="e9801b935b"><path d="M 551.898438 552.476562 L 680.167969 552.476562 L 680.167969 680.742188 L 551.898438 680.742188 Z M 551.898438 552.476562 " clip-rule="nonzero"/></clipPath><clipPath id="9b62ef2156"><path d="M 0.898438 0.476562 L 129.167969 0.476562 L 129.167969 128.742188 L 0.898438 128.742188 Z M 0.898438 0.476562 " clip-rule="nonzero"/></clipPath><clipPath id="27e3fa21be"><rect x="0" width="130" y="0" height="129"/></clipPath><clipPath id="b6e6349719"><path d="M 685.851562 1222.3125 L 814.117188 1222.3125 L 814.117188 1350.578125 L 685.851562 1350.578125 Z M 685.851562 1222.3125 " clip-rule="nonzero"/></clipPath><clipPath id="5cb704ff5c"><path d="M 0.851562 0.3125 L 129.117188 0.3125 L 129.117188 128.578125 L 0.851562 128.578125 Z M 0.851562 0.3125 " clip-rule="nonzero"/></clipPath><clipPath id="aa47bf444b"><rect x="0" width="130" y="0" height="129"/></clipPath><clipPath id="b54762b627"><path d="M 685.851562 954.378906 L 814.117188 954.378906 L 814.117188 1082.644531 L 685.851562 1082.644531 Z M 685.851562 954.378906 " clip-rule="nonzero"/></clipPath><clipPath id="089db53a30"><path d="M 0.851562 0.378906 L 129.117188 0.378906 L 129.117188 128.644531 L 0.851562 128.644531 Z M 0.851562 0.378906 " clip-rule="nonzero"/></clipPath><clipPath id="f13150faa2"><rect x="0" width="130" y="0" height="129"/></clipPath><clipPath id="fb004eaf21"><path d="M 685.851562 686.445312 L 814.117188 686.445312 L 814.117188 814.710938 L 685.851562 814.710938 Z M 685.851562 686.445312 " clip-rule="nonzero"/></clipPath><clipPath id="6e7c8060aa"><path d="M 0.851562 0.445312 L 129.117188 0.445312 L 129.117188 128.710938 L 0.851562 128.710938 Z M 0.851562 0.445312 " clip-rule="nonzero"/></clipPath><clipPath id="089e0bbb6a"><rect x="0" width="130" y="0" height="129"/></clipPath><clipPath id="d8cfde5cd2"><path d="M 820.117188 1356.277344 L 948.382812 1356.277344 L 948.382812 1484.542969 L 820.117188 1484.542969 Z M 820.117188 1356.277344 " clip-rule="nonzero"/></clipPath><clipPath id="6342a1bedc"><path d="M 0.117188 0.277344 L 128.382812 0.277344 L 128.382812 128.542969 L 0.117188 128.542969 Z M 0.117188 0.277344 " clip-rule="nonzero"/></clipPath><clipPath id="ddf0c290c3"><rect x="0" width="129" y="0" height="129"/></clipPath><clipPath id="31c407a1d5"><path d="M 820.117188 1088.34375 L 948.382812 1088.34375 L 948.382812 1216.609375 L 820.117188 1216.609375 Z M 820.117188 1088.34375 " clip-rule="nonzero"/></clipPath><clipPath id="da4cbad930"><path d="M 0.117188 0.34375 L 128.382812 0.34375 L 128.382812 128.609375 L 0.117188 128.609375 Z M 0.117188 0.34375 " clip-rule="nonzero"/></clipPath><clipPath id="58208082db"><rect x="0" width="129" y="0" height="129"/></clipPath><clipPath id="921ba357a5"><path d="M 820.117188 820.410156 L 948.382812 820.410156 L 948.382812 948.675781 L 820.117188 948.675781 Z M 820.117188 820.410156 " clip-rule="nonzero"/></clipPath><clipPath id="3015c4105b"><path d="M 0.117188 0.410156 L 128.382812 0.410156 L 128.382812 128.675781 L 0.117188 128.675781 Z M 0.117188 0.410156 " clip-rule="nonzero"/></clipPath><clipPath id="499912d028"><rect x="0" width="129" y="0" height="129"/></clipPath><clipPath id="73ca6b87e6"><path d="M 820.117188 552.476562 L 948.382812 552.476562 L 948.382812 680.742188 L 820.117188 680.742188 Z M 820.117188 552.476562 " clip-rule="nonzero"/></clipPath><clipPath id="4d2f50b4e0"><path d="M 0.117188 0.476562 L 128.382812 0.476562 L 128.382812 128.742188 L 0.117188 128.742188 Z M 0.117188 0.476562 " clip-rule="nonzero"/></clipPath><clipPath id="e82b86c74c"><rect x="0" width="129" y="0" height="129"/></clipPath></defs><g clip-path="url(#b8d6344145)"><g transform="matrix(1, 0, 0, 1, 150, 150)"><g clip-path="url(#09e1798128)"><g clip-path="url(#bd548a1dab)"><path fill="#000000" d="M 0 0 L 128.265625 0 L 128.265625 128.265625 L 0 128.265625 Z M 0 0 " fill-opacity="1" fill-rule="nonzero"/></g></g></g></g><g clip-path="url(#88d3de5d4e)"><g transform="matrix(1, 0, 0, 1, 283, 150)"><g clip-path="url(#c25408dc59)"><g clip-path="url(#5e108ba351)"><path fill="#000000" d="M 0.964844 0 L 129.234375 0 L 129.234375 128.265625 L 0.964844 128.265625 Z M 0.964844 0 " fill-opacity="1" fill-rule="nonzero"/></g></g></g></g><g clip-path="url(#6ab2794576)"><g transform="matrix(1, 0, 0, 1, 417, 150)"><g clip-path="url(#86ad412cdd)"><g clip-path="url(#c04f10bf1d)"><path fill="#000000" d="M 0.933594 0 L 129.199219 0 L 129.199219 128.265625 L 0.933594 128.265625 Z M 0.933594 0 " fill-opacity="1" fill-rule="nonzero"/></g></g></g></g><g clip-path="url(#747bb9b53c)"><g transform="matrix(1, 0, 0, 1, 551, 150)"><g clip-path="url(#42ac6fce81)"><g clip-path="url(#64da721e23)"><path fill="#000000" d="M 0.898438 0 L 129.167969 0 L 129.167969 128.265625 L 0.898438 128.265625 Z M 0.898438 0 " fill-opacity="1" fill-rule="nonzero"/></g></g></g></g><g clip-path="url(#d8b3cb3bec)"><g transform="matrix(1, 0, 0, 1, 685, 150)"><g clip-path="url(#189f141fa6)"><g clip-path="url(#d5396d54fa)"><path fill="#000000" d="M 0.867188 0 L 129.132812 0 L 129.132812 128.265625 L 0.867188 128.265625 Z M 0.867188 0 " fill-opacity="1" fill-rule="nonzero"/></g></g></g></g><g clip-path="url(#022795a5e5)"><g transform="matrix(1, 0, 0, 1, 819, 150)"><g clip-path="url(#19a99fe88a)"><g clip-path="url(#b4bba00b99)"><path fill="#000000" d="M 0.832031 0 L 129.101562 0 L 129.101562 128.265625 L 0.832031 128.265625 Z M 0.832031 0 " fill-opacity="1" fill-rule="nonzero"/></g></g></g></g><g clip-path="url(#6202087a44)"><g transform="matrix(1, 0, 0, 1, 953, 150)"><g clip-path="url(#ce20cce3bf)"><g clip-path="url(#40a729adca)"><path fill="#000000" d="M 0.800781 0 L 129.066406 0 L 129.066406 128.265625 L 0.800781 128.265625 Z M 0.800781 0 " fill-opacity="1" fill-rule="nonzero"/></g></g></g></g><g clip-path="url(#5db0a608c5)"><g transform="matrix(1, 0, 0, 1, 1087, 150)"><g clip-path="url(#93482f0cd1)"><g clip-path="url(#c546f85872)"><path fill="#000000" d="M 0.765625 0 L 129.03125 0 L 129.03125 128.265625 L 0.765625 128.265625 Z M 0.765625 0 " fill-opacity="1" fill-rule="nonzero"/></g></g></g></g><g clip-path="url(#1a9a89cd40)"><g transform="matrix(1, 0, 0, 1, 1221, 150)"><g clip-path="url(#3554460100)"><g clip-path="url(#fe5c726c9d)"><path fill="#000000" d="M 0.734375 0 L 129 0 L 129 128.265625 L 0.734375 128.265625 Z M 0.734375 0 " fill-opacity="1" fill-rule="nonzero"/></g></g></g></g><g clip-path="url(#bb9a3c3bd9)"><g transform="matrix(1, 0, 0, 1, 150, 283)"><g clip-path="url(#a1652db9cd)"><g clip-path="url(#aabadc3e50)"><path fill="#000000" d="M 0 0.949219 L 128.265625 0.949219 L 128.265625 129.214844 L 0 129.214844 Z M 0 0.949219 " fill-opacity="1" fill-rule="nonzero"/></g></g></g></g><g clip-path="url(#3580abb97a)"><g transform="matrix(1, 0, 0, 1, 283, 283)"><g clip-path="url(#ade875c2d0)"><g clip-path="url(#cc7aa27e00)"><path fill="#000000" d="M 0.964844 0.949219 L 129.234375 0.949219 L 129.234375 129.214844 L 0.964844 129.214844 Z M 0.964844 0.949219 " fill-opacity="1" fill-rule="nonzero"/></g></g></g></g><g clip-path="url(#4f39161a55)"><g transform="matrix(1, 0, 0, 1, 417, 283)"><g clip-path="url(#bf041938ee)"><g clip-path="url(#16c226e3a1)"><path fill="#000000" d="M 0.933594 0.949219 L 129.199219 0.949219 L 129.199219 129.214844 L 0.933594 129.214844 Z M 0.933594 0.949219 " fill-opacity="1" fill-rule="nonzero"/></g></g></g></g><g clip-path="url(#c8c6a94b25)"><g transform="matrix(1, 0, 0, 1, 551, 283)"><g clip-path="url(#1c7efaea7e)"><g clip-path="url(#4961531b4f)"><path fill="#000000" d="M 0.898438 0.949219 L 129.167969 0.949219 L 129.167969 129.214844 L 0.898438 129.214844 Z M 0.898438 0.949219 " fill-opacity="1" fill-rule="nonzero"/></g></g></g></g><g clip-path="url(#f789c151bb)"><g transform="matrix(1, 0, 0, 1, 685, 283)"><g clip-path="url(#6ccd30bd8a)"><g clip-path="url(#7dbc751ed5)"><path fill="#000000" d="M 0.867188 0.949219 L 129.132812 0.949219 L 129.132812 129.214844 L 0.867188 129.214844 Z M 0.867188 0.949219 " fill-opacity="1" fill-rule="nonzero"/></g></g></g></g><g clip-path="url(#ca94dd0666)"><g transform="matrix(1, 0, 0, 1, 819, 283)"><g clip-path="url(#627f00530f)"><g clip-path="url(#0e285f9309)"><path fill="#000000" d="M 0.832031 0.949219 L 129.101562 0.949219 L 129.101562 129.214844 L 0.832031 129.214844 Z M 0.832031 0.949219 " fill-opacity="1" fill-rule="nonzero"/></g></g></g></g><g clip-path="url(#cd75c3d62c)"><g transform="matrix(1, 0, 0, 1, 953, 283)"><g clip-path="url(#90755ba5a3)"><g clip-path="url(#c62aaf98e8)"><path fill="#000000" d="M 0.800781 0.949219 L 129.066406 0.949219 L 129.066406 129.214844 L 0.800781 129.214844 Z M 0.800781 0.949219 " fill-opacity="1" fill-rule="nonzero"/></g></g></g></g><g clip-path="url(#6bc0b8e60c)"><g transform="matrix(1, 0, 0, 1, 1087, 283)"><g clip-path="url(#4077a28291)"><g clip-path="url(#d2a5d8367f)"><path fill="#000000" d="M 0.765625 0.949219 L 129.03125 0.949219 L 129.03125 129.214844 L 0.765625 129.214844 Z M 0.765625 0.949219 " fill-opacity="1" fill-rule="nonzero"/></g></g></g></g><g clip-path="url(#e5fdd57034)"><g transform="matrix(1, 0, 0, 1, 1221, 283)"><g clip-path="url(#7a14df5887)"><g clip-path="url(#13ccb93c76)"><path fill="#000000" d="M 0.734375 0.949219 L 129 0.949219 L 129 129.214844 L 0.734375 129.214844 Z M 0.734375 0.949219 " fill-opacity="1" fill-rule="nonzero"/></g></g></g></g><g clip-path="url(#6ec08efbe0)"><g transform="matrix(1, 0, 0, 1, 150, 418)"><g clip-path="url(#2dd497cbc2)"><g clip-path="url(#7b0d968920)"><path fill="#000000" d="M 0 0.214844 L 128.265625 0.214844 L 128.265625 128.480469 L 0 128.480469 Z M 0 0.214844 " fill-opacity="1" fill-rule="nonzero"/></g></g></g></g><g clip-path="url(#9ce632ca63)"><g transform="matrix(1, 0, 0, 1, 283, 418)"><g clip-path="url(#6fc782f6c9)"><g clip-path="url(#79d4f922eb)"><path fill="#000000" d="M 0.964844 0.214844 L 129.234375 0.214844 L 129.234375 128.480469 L 0.964844 128.480469 Z M 0.964844 0.214844 " fill-opacity="1" fill-rule="nonzero"/></g></g></g></g><g clip-path="url(#eefc46f05a)"><g transform="matrix(1, 0, 0, 1, 417, 418)"><g clip-path="url(#6754ba0396)"><g clip-path="url(#8122b3c7af)"><path fill="#000000" d="M 0.933594 0.214844 L 129.199219 0.214844 L 129.199219 128.480469 L 0.933594 128.480469 Z M 0.933594 0.214844 " fill-opacity="1" fill-rule="nonzero"/></g></g></g></g><g clip-path="url(#6e57a3a84f)"><g transform="matrix(1, 0, 0, 1, 685, 418)"><g clip-path="url(#fd694f437f)"><g clip-path="url(#55611240d8)"><path fill="#000000" d="M 0.867188 0.214844 L 129.132812 0.214844 L 129.132812 128.480469 L 0.867188 128.480469 Z M 0.867188 0.214844 " fill-opacity="1" fill-rule="nonzero"/></g></g></g></g><g clip-path="url(#5a7e95d36c)"><g transform="matrix(1, 0, 0, 1, 953, 418)"><g clip-path="url(#5b09ba076d)"><g clip-path="url(#8c8d95e9ac)"><path fill="#000000" d="M 0.800781 0.214844 L 129.066406 0.214844 L 129.066406 128.480469 L 0.800781 128.480469 Z M 0.800781 0.214844 " fill-opacity="1" fill-rule="nonzero"/></g></g></g></g><g clip-path="url(#0ac27999e5)"><g transform="matrix(1, 0, 0, 1, 1087, 418)"><g clip-path="url(#c97877d92b)"><g clip-path="url(#3ba912ff06)"><path fill="#000000" d="M 0.765625 0.214844 L 129.03125 0.214844 L 129.03125 128.480469 L 0.765625 128.480469 Z M 0.765625 0.214844 " fill-opacity="1" fill-rule="nonzero"/></g></g></g></g><g clip-path="url(#e665ed8f81)"><g transform="matrix(1, 0, 0, 1, 1221, 418)"><g clip-path="url(#95a31cbf0b)"><g clip-path="url(#e713289334)"><path fill="#000000" d="M 0.734375 0.214844 L 129 0.214844 L 129 128.480469 L 0.734375 128.480469 Z M 0.734375 0.214844 " fill-opacity="1" fill-rule="nonzero"/></g></g></g></g><g clip-path="url(#98f4cfaaef)"><g transform="matrix(1, 0, 0, 1, 551, 1356)"><g clip-path="url(#df64130668)"><g clip-path="url(#5e8e9f5a43)"><path fill="#000000" d="M 0.898438 128.542969 L 0.898438 0.277344 L 129.167969 0.277344 L 129.167969 128.542969 Z M 0.898438 128.542969 " fill-opacity="1" fill-rule="nonzero"/></g></g></g></g><g clip-path="url(#31509237aa)"><g transform="matrix(1, 0, 0, 1, 551, 1088)"><g clip-path="url(#64d090c078)"><g clip-path="url(#794ad1bdcc)"><path fill="#000000" d="M 0.898438 128.609375 L 0.898438 0.34375 L 129.167969 0.34375 L 129.167969 128.609375 Z M 0.898438 128.609375 " fill-opacity="1" fill-rule="nonzero"/></g></g></g></g><g clip-path="url(#871776bd91)"><g transform="matrix(1, 0, 0, 1, 551, 820)"><g clip-path="url(#5563443e41)"><g clip-path="url(#4334ee1bf5)"><path fill="#000000" d="M 0.898438 128.675781 L 0.898438 0.410156 L 129.167969 0.410156 L 129.167969 128.675781 Z M 0.898438 128.675781 " fill-opacity="1" fill-rule="nonzero"/></g></g></g></g><g clip-path="url(#e9801b935b)"><g transform="matrix(1, 0, 0, 1, 551, 552)"><g clip-path="url(#27e3fa21be)"><g clip-path="url(#9b62ef2156)"><path fill="#000000" d="M 0.898438 128.742188 L 0.898438 0.476562 L 129.167969 0.476562 L 129.167969 128.742188 Z M 0.898438 128.742188 " fill-opacity="1" fill-rule="nonzero"/></g></g></g></g><g clip-path="url(#b6e6349719)"><g transform="matrix(1, 0, 0, 1, 685, 1222)"><g clip-path="url(#aa47bf444b)"><g clip-path="url(#5cb704ff5c)"><path fill="#000000" d="M 0.851562 128.578125 L 0.851562 0.3125 L 129.117188 0.3125 L 129.117188 128.578125 Z M 0.851562 128.578125 " fill-opacity="1" fill-rule="nonzero"/></g></g></g></g><g clip-path="url(#b54762b627)"><g transform="matrix(1, 0, 0, 1, 685, 954)"><g clip-path="url(#f13150faa2)"><g clip-path="url(#089db53a30)"><path fill="#000000" d="M 0.851562 128.644531 L 0.851562 0.378906 L 129.117188 0.378906 L 129.117188 128.644531 Z M 0.851562 128.644531 " fill-opacity="1" fill-rule="nonzero"/></g></g></g></g><g clip-path="url(#fb004eaf21)"><g transform="matrix(1, 0, 0, 1, 685, 686)"><g clip-path="url(#089e0bbb6a)"><g clip-path="url(#6e7c8060aa)"><path fill="#000000" d="M 0.851562 128.710938 L 0.851562 0.445312 L 129.117188 0.445312 L 129.117188 128.710938 Z M 0.851562 128.710938 " fill-opacity="1" fill-rule="nonzero"/></g></g></g></g><g clip-path="url(#d8cfde5cd2)"><g transform="matrix(1, 0, 0, 1, 820, 1356)"><g clip-path="url(#ddf0c290c3)"><g clip-path="url(#6342a1bedc)"><path fill="#000000" d="M 0.117188 128.542969 L 0.117188 0.277344 L 128.382812 0.277344 L 128.382812 128.542969 Z M 0.117188 128.542969 " fill-opacity="1" fill-rule="nonzero"/></g></g></g></g><g clip-path="url(#31c407a1d5)"><g transform="matrix(1, 0, 0, 1, 820, 1088)"><g clip-path="url(#58208082db)"><g clip-path="url(#da4cbad930)"><path fill="#000000" d="M 0.117188 128.609375 L 0.117188 0.34375 L 128.382812 0.34375 L 128.382812 128.609375 Z M 0.117188 128.609375 " fill-opacity="1" fill-rule="nonzero"/></g></g></g></g><g clip-path="url(#921ba357a5)"><g transform="matrix(1, 0, 0, 1, 820, 820)"><g clip-path="url(#499912d028)"><g clip-path="url(#3015c4105b)"><path fill="#000000" d="M 0.117188 128.675781 L 0.117188 0.410156 L 128.382812 0.410156 L 128.382812 128.675781 Z M 0.117188 128.675781 " fill-opacity="1" fill-rule="nonzero"/></g></g></g></g><g clip-path="url(#73ca6b87e6)"><g transform="matrix(1, 0, 0, 1, 820, 552)"><g clip-path="url(#e82b86c74c)"><g clip-path="url(#4d2f50b4e0)"><path fill="#000000" d="M 0.117188 128.742188 L 0.117188 0.476562 L 128.382812 0.476562 L 128.382812 128.742188 Z M 0.117188 128.742188 " fill-opacity="1" fill-rule="nonzero"/></g></g></g></g></svg>